<svg width="1154" height="1148" viewBox="0 0 1154 1148" fill="none" xmlns="http://www.w3.org/2000/svg">
<path d="M340.71 28.9355C401.674 54.5126 417.804 129.517 486.192 146.907C543.847 161.568 613.675 140.903 672.357 142.956C740.831 145.351 810.356 156.238 876.045 175.772C967.393 202.934 1043.9 264.027 1131.13 301.378" stroke="#C6C6C6" stroke-width="1.60976" stroke-miterlimit="10" stroke-linecap="round" stroke-linejoin="round"/>
<path d="M332.612 54.0635C393.717 79.5515 405.606 156.286 474.355 174.689C530.085 189.607 597.595 170.913 654.331 172.787C722.061 175.021 794.241 179.979 859.458 199.4C951.348 226.77 1026.75 292.553 1113.95 331.112" stroke="#C6C6C6" stroke-width="1.60976" stroke-miterlimit="10" stroke-linecap="round" stroke-linejoin="round"/>
<path d="M328.618 83.1143C385.95 108.668 391.059 183.024 454.194 204.307C508.164 222.498 571.854 205.758 627.677 206.585C692.72 207.548 763.643 201.676 827.512 215.693C925.571 237.213 1004 316.012 1093.23 358.158" stroke="#C6C6C6" stroke-width="1.60976" stroke-miterlimit="10" stroke-linecap="round" stroke-linejoin="round"/>
<path d="M326.746 114.277C382.152 140.824 379.122 215.862 440.721 238.976C488.819 257.027 548.814 244.603 599.054 243.585C665.964 242.227 736.541 223.019 803.178 232.59C901.996 246.787 984.178 340.091 1070.66 383.777" stroke="#C6C6C6" stroke-width="1.60976" stroke-miterlimit="10" stroke-linecap="round" stroke-linejoin="round"/>
<path d="M325.026 145.749C375.269 172.489 367.552 244.992 420.343 271.983C462.943 293.761 526.881 283.399 572.499 280.205C643.554 275.228 716.977 240.745 788.311 251.501C882.579 265.715 966.61 364.999 1047.91 409.237" stroke="#C6C6C6" stroke-width="1.60976" stroke-miterlimit="10" stroke-linecap="round" stroke-linejoin="round"/>
<path d="M321.477 175.737C370.678 203.463 355.895 276.199 407.577 304.927C446.176 326.381 504.801 319.284 546.66 314.988C619.534 307.511 692.036 261.037 765.962 269.626C859.892 280.54 947.672 390.488 1026.66 435.817" stroke="#C6C6C6" stroke-width="1.60976" stroke-miterlimit="10" stroke-linecap="round" stroke-linejoin="round"/>
<path d="M314.125 202.433C365.815 232.755 343.713 307.038 402.205 336.944C436.354 354.405 487.709 350.301 524.79 346.629C597.671 339.407 662.214 291.816 735.761 291.883C833.855 291.972 930.331 417.756 1008.64 464.784" stroke="#C6C6C6" stroke-width="1.60976" stroke-miterlimit="10" stroke-linecap="round" stroke-linejoin="round"/>
<path d="M300.938 223.823C352.367 256.477 333.874 331.232 392.616 361.832C427.035 379.761 477.391 375.398 514.762 371.094C587.996 362.662 655.432 318.905 729.885 321.086C829.217 323.996 916.192 448.743 995.13 497.36" stroke="#C6C6C6" stroke-width="1.60976" stroke-miterlimit="10" stroke-linecap="round" stroke-linejoin="round"/>
<path d="M282.299 239.777C333.79 273.121 327.334 350.347 382.385 382.065C422.018 404.9 472.834 395.024 515.567 389.348C592.467 379.137 676.754 341.069 754.76 356.021C848.454 373.978 908.552 483.283 985.451 533.393" stroke="#C6C6C6" stroke-width="1.60976" stroke-miterlimit="10" stroke-linecap="round" stroke-linejoin="round"/>
<path d="M260.515 252.532C308.025 296.194 324.756 374.188 383.091 405.066C425.753 427.649 474.184 412.054 519.006 406.208C600.668 395.552 696.972 371.52 778.169 393.323C870.292 418.057 903.771 517.768 977.979 571.512" stroke="#C6C6C6" stroke-width="1.60976" stroke-miterlimit="10" stroke-linecap="round" stroke-linejoin="round"/>
<path d="M237.912 264.362C293.449 311.68 322.455 401.426 391.49 430.223C434.454 448.148 475.261 428.802 518.882 422.651C605.872 410.384 707.852 406.122 793.616 427.61C893.719 452.69 897.577 550.979 971.06 610.283" stroke="#C6C6C6" stroke-width="1.60976" stroke-miterlimit="10" stroke-linecap="round" stroke-linejoin="round"/>
<path d="M216.816 277.546C279.093 328.155 319.787 433.292 399.121 457.453C440.814 470.15 484.614 445.93 525.583 440.037C621.06 426.304 736.816 436.235 827.867 468.84C916.657 500.634 898.628 591.082 963.031 648.303" stroke="#C6C6C6" stroke-width="1.60976" stroke-miterlimit="10" stroke-linecap="round" stroke-linejoin="round"/>
<path d="M199.551 294.365C264.188 347.013 313.52 458.787 395.78 482.67C437.862 494.889 481.065 467.43 522.101 460.915C622.295 445.008 742.08 467.177 835.841 504.12C880.762 521.819 892.272 535.806 906.925 581.104C922.255 628.487 908.894 643.127 952.248 684.147" stroke="#C6C6C6" stroke-width="1.60976" stroke-miterlimit="10" stroke-linecap="round" stroke-linejoin="round"/>
<path d="M187.702 316.304C253.717 368.78 304.412 475.855 386.403 502.267C427.519 515.512 470.558 491.729 511.294 486.334C613.008 472.861 727.781 500.006 822.036 538.07C866.584 556.061 878.535 569.62 893.078 615.012C908.094 661.878 895.642 675.606 937.817 716.943" stroke="#C6C6C6" stroke-width="1.60976" stroke-miterlimit="10" stroke-linecap="round" stroke-linejoin="round"/>
<path d="M177.662 339.859C243.472 389.551 289.074 481.015 367.25 511.646C409.568 528.227 457.068 513.625 500.805 512.697C600.247 510.587 700.398 543.362 790.514 583.485C871.388 619.494 862.052 693.767 922.771 749.3" stroke="#C6C6C6" stroke-width="1.60976" stroke-miterlimit="10" stroke-linecap="round" stroke-linejoin="round"/>
<path d="M168.251 364.002C229.806 409.688 269.063 486.793 340.251 518.903C386.618 539.817 441.974 533.261 491.211 539.202C584.563 550.47 667.346 593.742 749.373 637.454C818.159 674.109 846.891 735.998 907.655 781.761" stroke="#C6C6C6" stroke-width="1.60976" stroke-miterlimit="10" stroke-linecap="round" stroke-linejoin="round"/>
<path d="M159.068 388.396C219.144 423.297 245.314 494.88 309.601 526.263C362.367 552.021 426.112 550.292 481.917 565.837C566.942 589.521 632.082 647.16 704.507 694.706C766.319 735.285 828.832 776.725 892.494 814.289" stroke="#C6C6C6" stroke-width="1.60976" stroke-miterlimit="10" stroke-linecap="round" stroke-linejoin="round"/>
<path d="M149.712 412.733C202.687 443.811 222.496 507.05 279.509 535.982C339.383 566.365 411.113 565.477 472.339 592.609C549.34 626.734 597.269 698.864 661.822 750.004C723.084 798.537 807.432 813.794 877.32 846.873" stroke="#C6C6C6" stroke-width="1.60976" stroke-miterlimit="10" stroke-linecap="round" stroke-linejoin="round"/>
<path d="M139.774 436.683C187.852 465.652 201.044 523.977 254.165 550.289C319.688 582.739 398.426 582.034 461.864 619.512C532.938 661.497 566.681 744.146 627.19 798.085C689.787 853.882 787.153 847.709 862.146 879.484" stroke="#C6C6C6" stroke-width="1.60976" stroke-miterlimit="10" stroke-linecap="round" stroke-linejoin="round"/>
<path d="M128.878 459.936C175.617 488.695 186.154 545.861 238.087 572.035C304.87 605.693 386.46 604.874 449.598 646.863C517.99 692.344 546.783 778.216 606.812 832.941C671.381 891.808 769.847 878.067 846.985 912.128" stroke="#C6C6C6" stroke-width="1.60976" stroke-miterlimit="10" stroke-linecap="round" stroke-linejoin="round"/>
<path d="M117.583 482.905C165.42 512.884 175.474 573.18 227.76 602.011C292.128 637.509 371.58 638.536 434.008 677.949C501.474 720.541 537.602 799.561 596.397 852.236C660.043 909.256 756.23 909.347 831.753 944.886" stroke="#C6C6C6" stroke-width="1.60976" stroke-miterlimit="10" stroke-linecap="round" stroke-linejoin="round"/>
<path d="M106.275 505.919C155.551 538.738 164.589 603.231 217.856 635.663C278.884 672.818 354.501 677.348 416.537 712.107C483.316 749.524 529.959 815.292 588.753 863.207C654.803 917.038 742.495 936.925 816.502 977.663" stroke="#C6C6C6" stroke-width="1.60976" stroke-miterlimit="10" stroke-linecap="round" stroke-linejoin="round"/>
<path d="M94.9575 528.968C145.776 565.488 153.716 634.499 208.139 671.093C264.985 709.316 336.989 718.833 398.17 747.734C464.892 779.252 522.475 827.873 582.415 870.242C653.213 920.287 728.903 962.737 801.23 1010.48" stroke="#C6C6C6" stroke-width="1.60976" stroke-miterlimit="10" stroke-linecap="round" stroke-linejoin="round"/>
<path d="M83.623 552.047C136 592.401 142.309 666.131 198.356 706.407C251.723 744.757 319.559 759.768 379.881 783.242C447.328 809.491 513.971 840.15 575.921 877.744C651.69 923.718 715.994 989.222 785.926 1043.36" stroke="#C6C6C6" stroke-width="1.60976" stroke-miterlimit="10" stroke-linecap="round" stroke-linejoin="round"/>
<path d="M72.269 575.148C125.862 618.472 131.748 695.659 188.268 739.711C238.486 778.852 303.128 797.407 362.652 817.031C431.203 839.632 503.899 855.348 567.809 890.097C647.159 933.24 702.755 1017.93 770.59 1076.32" stroke="#C6C6C6" stroke-width="1.60976" stroke-miterlimit="10" stroke-linecap="round" stroke-linejoin="round"/>
<path d="M60.8979 598.268C115.381 642.954 121.254 722.493 177.625 769.112C226.647 809.652 287.606 829.036 347.454 847.508C416.476 868.814 492.366 876.895 556.607 911.698C638.04 955.82 686.725 1048.93 755.208 1109.39" stroke="#C6C6C6" stroke-width="1.60976" stroke-miterlimit="10" stroke-linecap="round" stroke-linejoin="round"/>
</svg>
